<svg xmlns="http://www.w3.org/2000/svg" xmlns:xlink="http://www.w3.org/1999/xlink" width="29" height="21" viewBox="0 0 29 21">
  <defs>
    <linearGradient id="linear-gradient" x1="0.5" x2="0.5" y2="1" gradientUnits="objectBoundingBox">
      <stop offset="0" stop-color="#fc59c4"/>
      <stop offset="1" stop-color="#e44aa5"/>
    </linearGradient>
    <clipPath id="clip-path">
      <rect id="Rectangle_46" data-name="Rectangle 46" width="29" height="21" transform="translate(0 0.198)" fill="url(#linear-gradient)"/>
    </clipPath>
  </defs>
  <g id="Discord-Logo-Black" transform="translate(0 -0.198)" clip-path="url(#clip-path)">
    <path id="Path_3" data-name="Path 3" d="M23.856,2.192A23.239,23.239,0,0,0,18.12.413a.087.087,0,0,0-.092.044,16.188,16.188,0,0,0-.714,1.467,21.454,21.454,0,0,0-6.443,0A14.847,14.847,0,0,0,10.146.457a.09.09,0,0,0-.092-.044A23.174,23.174,0,0,0,4.317,2.192a.082.082,0,0,0-.038.032A23.784,23.784,0,0,0,.116,18.265a.1.1,0,0,0,.037.066A23.369,23.369,0,0,0,7.19,21.888a.091.091,0,0,0,.1-.032,16.7,16.7,0,0,0,1.44-2.342.089.089,0,0,0-.049-.124,15.389,15.389,0,0,1-2.2-1.048.09.09,0,0,1-.009-.15c.148-.111.3-.226.437-.342A.087.087,0,0,1,7,17.837a16.665,16.665,0,0,0,14.162,0,.087.087,0,0,1,.092.011c.141.116.289.233.438.343a.09.09,0,0,1-.008.15,14.441,14.441,0,0,1-2.2,1.047.09.09,0,0,0-.048.125,18.753,18.753,0,0,0,1.438,2.34.089.089,0,0,0,.1.034,23.291,23.291,0,0,0,7.048-3.557.09.09,0,0,0,.037-.065,23.628,23.628,0,0,0-4.167-16.04A.072.072,0,0,0,23.856,2.192ZM9.417,15.063a2.709,2.709,0,0,1-2.533-2.84,2.694,2.694,0,0,1,2.533-2.84,2.679,2.679,0,0,1,2.533,2.84A2.694,2.694,0,0,1,9.417,15.063Zm9.364,0a2.709,2.709,0,0,1-2.533-2.84,2.694,2.694,0,0,1,2.533-2.84,2.679,2.679,0,0,1,2.533,2.84A2.686,2.686,0,0,1,18.781,15.063Z" transform="translate(0.41 -0.664)" fill="url(#linear-gradient)"/>
  </g>
</svg>
