<svg xmlns="http://www.w3.org/2000/svg" xmlns:xlink="http://www.w3.org/1999/xlink" width="26.111" height="21.22" viewBox="0 0 26.111 21.22">
  <defs>
    <linearGradient id="linear-gradient" x1="0.5" x2="0.5" y2="1" gradientUnits="objectBoundingBox">
      <stop offset="0" stop-color="#fc59c4"/>
      <stop offset="1" stop-color="#e44aa5"/>
    </linearGradient>
  </defs>
  <path id="iconmonstr-twitter-1" d="M26.111,4.76a10.7,10.7,0,0,1-3.077.843A5.366,5.366,0,0,0,25.39,2.64a10.731,10.731,0,0,1-3.4,1.3,5.361,5.361,0,0,0-9.129,4.885,15.208,15.208,0,0,1-11.041-5.6,5.364,5.364,0,0,0,1.657,7.152A5.334,5.334,0,0,1,1.05,9.71a5.361,5.361,0,0,0,4.3,5.32,5.369,5.369,0,0,1-2.42.091,5.361,5.361,0,0,0,5,3.72A10.771,10.771,0,0,1,0,21.061a15.165,15.165,0,0,0,8.212,2.407A15.15,15.15,0,0,0,23.438,7.533,10.907,10.907,0,0,0,26.111,4.76Z" transform="translate(0 -2.248)" fill="url(#linear-gradient)"/>
</svg>
