<svg xmlns="http://www.w3.org/2000/svg" width="85.5" height="85.5" viewBox="0 0 85.5 85.5">
  <g id="Group_31" data-name="Group 31" transform="translate(-234 -5429.901)">
    <g id="Group_30" data-name="Group 30">
      <g id="Group_29" data-name="Group 29" transform="translate(-113 451.776)">
        <g id="Group_28" data-name="Group 28" transform="translate(0 498.625)">
          <rect id="Rectangle_71" data-name="Rectangle 71" width="60.458" height="60.458" rx="19" transform="translate(389.75 4479.5) rotate(45)" fill="#edeef3"/>
        </g>
        <path id="Path_28" data-name="Path 28" d="M.7,0V-.9A5.25,5.25,0,0,1,.938-2.555a4.161,4.161,0,0,1,.738-1.32A11.373,11.373,0,0,1,3.43-5.461,13.006,13.006,0,0,0,4.613-6.473a2.536,2.536,0,0,0,.438-.6A1.378,1.378,0,0,0,5.2-7.7q0-1.117-1.344-1.117a4.033,4.033,0,0,0-2.586.992v-2.727A7.836,7.836,0,0,1,3-11.2a7.325,7.325,0,0,1,1.66-.187,4.159,4.159,0,0,1,2.828.875,3.087,3.087,0,0,1,1,2.453,3.824,3.824,0,0,1-.523,2.055A6.2,6.2,0,0,1,6.023-4.25,12.871,12.871,0,0,0,4.582-3.223a.913.913,0,0,0-.363.551H8.594V0ZM19.472-5.7a7.383,7.383,0,0,1-1.1,4.387A3.722,3.722,0,0,1,15.167.2a3.815,3.815,0,0,1-3.223-1.383,7,7,0,0,1-1.066-4.281A7.18,7.18,0,0,1,12.03-9.883a3.94,3.94,0,0,1,3.332-1.508Q19.472-11.391,19.472-5.7Zm-3.281,0a9.487,9.487,0,0,0-.234-2.469q-.234-.8-.758-.8-1.023,0-1.023,3.422a9.52,9.52,0,0,0,.238,2.488q.238.809.754.809Q16.191-2.242,16.191-5.7ZM21.475,0V-.9a5.25,5.25,0,0,1,.234-1.656,4.161,4.161,0,0,1,.738-1.32A11.373,11.373,0,0,1,24.2-5.461a13.006,13.006,0,0,0,1.184-1.012,2.535,2.535,0,0,0,.438-.6,1.378,1.378,0,0,0,.145-.625q0-1.117-1.344-1.117a4.033,4.033,0,0,0-2.586.992v-2.727a7.836,7.836,0,0,1,1.738-.656,7.325,7.325,0,0,1,1.66-.187,4.159,4.159,0,0,1,2.828.875,3.087,3.087,0,0,1,1,2.453,3.824,3.824,0,0,1-.523,2.055A6.2,6.2,0,0,1,26.8-4.25a12.87,12.87,0,0,0-1.441,1.027.913.913,0,0,0-.363.551h4.375V0ZM31.861,0V-.9A5.25,5.25,0,0,1,32.1-2.555a4.161,4.161,0,0,1,.738-1.32,11.373,11.373,0,0,1,1.754-1.586,13.006,13.006,0,0,0,1.184-1.012,2.536,2.536,0,0,0,.438-.6,1.378,1.378,0,0,0,.145-.625q0-1.117-1.344-1.117a4.033,4.033,0,0,0-2.586.992v-2.727a7.836,7.836,0,0,1,1.738-.656,7.325,7.325,0,0,1,1.66-.187,4.159,4.159,0,0,1,2.828.875,3.087,3.087,0,0,1,1,2.453,3.824,3.824,0,0,1-.523,2.055A6.2,6.2,0,0,1,37.181-4.25,12.871,12.871,0,0,0,35.74-3.223a.913.913,0,0,0-.363.551h4.375V0Z" transform="translate(369.25 5025.875)" fill="#e44aa4"/>
      </g>
    </g>
  </g>
</svg>
