<svg xmlns="http://www.w3.org/2000/svg" width="161.165" height="68.928" viewBox="0 0 161.165 68.928">
  <g id="Group_30" data-name="Group 30" transform="translate(-555.835 -9518.341)">
    <path id="Path_15" data-name="Path 15" d="M-112.516-23.8h-22.889v4.327h9.16V4.508h4.57V-19.473h9.16ZM-85.239.221h-16.075V-7.6h15.266V-11.89h-15.266v-7.623H-85.5V-23.8h-20.382V4.508h20.645Zm27.5,4.287h6.208L-65.141-9.99-52.4-23.8h-5.9L-68.942-11.89h-2.79V-23.8H-76.3V4.508h4.57V-7.563H-69ZM-40.917-23.8h-4.57V4.508h4.57ZM-12.65,4.508h6.208L-20.05-9.99-7.312-23.8h-5.9L-23.852-11.89h-2.79V-23.8h-4.57V4.508h4.57V-7.563h2.73ZM13.859-23.8h-5.7L-3.025,4.508H1.727l2.79-7.218H17.337l2.79,7.218H25.04Zm-2.932,4.549L15.658-7.038H6.2Z" transform="translate(691.353 9542.141)"/>
    <path id="Path_16" data-name="Path 16" d="M-18.29-5.118q.149,0,.177.037a.375.375,0,0,1,.028.186v1.087a.3.3,0,0,1-.033.181.279.279,0,0,1-.172.033l-2.035-.046h-.325v1.208l1.663-.046q.186,0,.186.214l-.037,1.124v.985l.019,2.193q.26.019.753.019.613,0,.613-.539V-6.549h-7.871V1.08l.037,2.685a.294.294,0,0,1-.037.186.32.32,0,0,1-.167.028h-1.487q-.158,0-.186-.046a.29.29,0,0,1-.028-.167l.037-2.741V-5.35l-.037-2.583q0-.158.037-.186a.347.347,0,0,1,.177-.028l2.6.037h.037A9.09,9.09,0,0,0-24.85-9.5a.352.352,0,0,1-.037-.13q0-.112.232-.167l1.1-.269a.8.8,0,0,1,.149-.019q.149,0,.251.232a8.071,8.071,0,0,1,.632,1.747h2.091q.251-.623.437-1.143a3.959,3.959,0,0,0,.2-.873A11.536,11.536,0,0,1-18.1-9.69q.288.112.288.214a.241.241,0,0,1-.13.2.681.681,0,0,0-.251.307l-.437.855h.251l2.6-.037a.339.339,0,0,1,.2.037.347.347,0,0,1,.028.177L-15.586-5.2v4.191l.037,2.89a2.011,2.011,0,0,1-.492,1.543,3.946,3.946,0,0,1-2.193.418q-.186.009-.232.009-.288,0-.362-.121a1.985,1.985,0,0,1-.112-.455,7.576,7.576,0,0,0-.279-.892h-.957q-.149,0-.177-.046a.29.29,0,0,1-.028-.167V1.749h-2.091v.725a.279.279,0,0,1-.033.172.3.3,0,0,1-.181.033h-1.134q-.158,0-.186-.037a.32.32,0,0,1-.028-.167L-24,.114V-.8l-.037-1.468q0-.158.037-.186a.32.32,0,0,1,.167-.028l1.58.046V-3.641h-.279l-2.016.046a.294.294,0,0,1-.186-.037.347.347,0,0,1-.028-.177V-4.895q0-.158.046-.2a.29.29,0,0,1,.167-.028l2.016.037h.279a10.882,10.882,0,0,0-.112-1.124q.9.028,1.635.112.251.028.251.177a.428.428,0,0,1-.037.149.8.8,0,0,0-.056.149,2.38,2.38,0,0,0-.084.539h.325Zm-2.091,4.033h-2.091V.337h2.091Zm-4.451-9.06-2.648.037a.294.294,0,0,1-.186-.037.32.32,0,0,1-.028-.167v-1.3q0-.149.046-.177a.29.29,0,0,1,.167-.028l2.648.037h2.36v-.056a7.9,7.9,0,0,0-.121-1.617q1.134.028,1.979.13.325.037.325.2a.885.885,0,0,1-.13.381,2.55,2.55,0,0,0-.093.892v.074h2.8l2.6-.037a.294.294,0,0,1,.186.037.32.32,0,0,1,.028.167v1.3q0,.149-.046.177a.29.29,0,0,1-.167.028l-2.6-.037ZM-32.07,2.6a8.285,8.285,0,0,0,.9-1.487,30.405,30.405,0,0,0,1.617-4.4,8.766,8.766,0,0,0,1.022.939q.418.316.418.483a2.047,2.047,0,0,1-.093.427,39,39,0,0,1-1.58,4.107,2.941,2.941,0,0,0-.288.743q-.028.269-.2.269a.922.922,0,0,1-.362-.112A11.175,11.175,0,0,1-32.07,2.6Zm1.087-10.9a14.227,14.227,0,0,1,2.425,1.8q.112.112.112.177a.523.523,0,0,1-.121.242l-.781,1.124q-.121.177-.2.177a.279.279,0,0,1-.167-.1,14.132,14.132,0,0,0-2.4-1.979q-.13-.074-.13-.149a.449.449,0,0,1,.112-.232l.762-1a.273.273,0,0,1,.2-.13A.361.361,0,0,1-30.983-8.3Zm.65-4.72a14.977,14.977,0,0,1,2.3,1.877q.112.121.112.177a.575.575,0,0,1-.112.223l-.864,1.087q-.121.158-.186.158-.046,0-.149-.1a12.282,12.282,0,0,0-2.3-2q-.13-.093-.13-.149a.572.572,0,0,1,.139-.214l.818-.966q.13-.167.214-.167A.318.318,0,0,1-30.333-13.016ZM-9.2-10.164l-2.4.037q-.158,0-.186-.037a.32.32,0,0,1-.028-.167v-1.608q0-.149.037-.177a.347.347,0,0,1,.177-.028l2.4.037H2.38l2.4-.037q.158,0,.186.037a.32.32,0,0,1,.028.167v1.608q0,.149-.037.177a.347.347,0,0,1-.177.028l-2.4-.037H-2.712v2.527A31.6,31.6,0,0,1,3.2-4.57q.158.093.158.2a.6.6,0,0,1-.093.2L2.361-2.9q-.13.2-.214.2a.339.339,0,0,1-.167-.065A35.522,35.522,0,0,0-2.712-5.536V1.136l.037,2.593q0,.149-.046.186a.375.375,0,0,1-.186.028H-4.654q-.167,0-.2-.046a.29.29,0,0,1-.028-.167l.037-2.593v-11.3Z" transform="translate(650.234 9583.289)" opacity="0.6"/>
    <path id="Line_13" data-name="Line 13" d="M45.2.689H0V-.5H45.2Z" transform="translate(555.835 9580.73)" opacity="0.3"/>
    <path id="Line_14" data-name="Line 14" d="M45.2.689H0V-.5H45.2Z" transform="translate(671.802 9580.73)" opacity="0.3"/>
  </g>
</svg>
